<?xml version="1.0" encoding="utf-8"?>
<!-- Generator: Adobe Illustrator 17.0.0, SVG Export Plug-In . SVG Version: 6.00 Build 0)  -->
<!DOCTYPE svg PUBLIC "-//W3C//DTD SVG 1.1//EN" "http://www.w3.org/Graphics/SVG/1.1/DTD/svg11.dtd">
<svg version="1.1" id="Layer_1" xmlns="http://www.w3.org/2000/svg" xmlns:xlink="http://www.w3.org/1999/xlink" x="0px" y="0px"
	 width="100.001px" height="77.321px" viewBox="0 11.338 100.001 77.321" enable-background="new 0 11.338 100.001 77.321"
	 xml:space="preserve">
<path d="M44.543,29.254l0.168-0.216l0.156-0.392l0.042-0.199l-0.144-0.013l-0.219,0.093l-0.189,0.119l-0.229,0.214l-0.078,0.188
	l0.039,0.565L44.543,29.254z M47.124,23.581l-0.015,0.2l0.1,0.163l0.113-0.028l0.364-0.332l0.225-0.092l0.279-0.22l0.252-0.276
	l0.183-0.315l0.036-0.044l0.021-0.053V22.5l-0.171,0.009l-0.129,0.077l-0.216,0.276l-0.069-0.276l-0.157,0.126l-0.294,0.512
	l-0.087-0.109l0.033-0.039l0.015-0.002l0.016-0.016l0.023-0.075L47.5,22.984l-0.124,0.037l-0.099,0.076l-0.069,0.126l-0.03-0.011
	l-0.055-0.011h-0.078l-0.099,0.021v0.132l0.168,0.06L47.124,23.581z M45.692,24.557l0.307-0.075l0.48-0.378l0.297-0.159
	l-0.003-0.075l-0.018-0.056l-0.066-0.108l-0.084-0.012l-0.097,0.063l-0.113,0.038l-0.139-0.09l-0.15,0.127l-0.327,0.111
	l-0.135,0.123l-0.048,0.123l-0.021,0.163l0.024,0.144L45.692,24.557z M74.074,80.652l0.009-0.428l-0.181-1.431l0.052-0.731
	l-0.017-0.299l-0.112-0.289l-0.188-0.229l-0.201-0.188l-0.16-0.224l-0.092-0.567l-0.059-0.138l-0.035-0.144l0.035-0.237l0.078-0.142
	l0.127-0.133l0.236-0.184l0.026,0.336L73.488,75.9l-0.045,0.283l0.207,0.365l0.418,0.379l0.149,0.172l0.125,0.26l0.134,0.576
	l0.047,0.631l-0.008,1.369l-0.039,0.34l-0.182,0.687l-0.107,0.692L73.89,82.34l-0.065,0.346l-0.081,0.242l-0.727,1.288l-0.094,0.317
	l-0.046,0.343l-0.012,0.366l0.301-0.223l0.403-0.981l0.254-0.388l0.355-0.187l0.457-0.099l0.463-0.014l0.371,0.069l-0.051-0.159
	l-0.171-0.32l-0.036-0.145l0.064-0.15l0.15-0.021l0.147,0.01l0.069-0.069l0.067-0.303l0.165-0.268l0.557-0.615l0.123-0.099
	l0.148-0.03l0.275-0.003l0.033-0.065l0.269-0.388l0.065-0.168l-0.027-0.075l-0.123-0.1l0.127-0.116l0.035-0.021l-0.041-0.14
	l-0.066-0.144l-0.039-0.055l-0.029-0.027l-0.061-0.041l-0.042-0.049l-0.612-0.976L76.4,78.768l0.177-0.119
	c0.882-0.547,1.762-1.096,2.642-1.646l0.201-0.151l-0.188-0.276c-0.193-0.337-0.385-0.675-0.576-1.015
	c0.271-4.271,0.542-8.543,0.811-12.815L79.13,62.33c1-3.732,2.001-7.469,3.002-11.201l0.21-0.273
	c-0.111-0.35-0.225-0.698-0.339-1.047l0.138-0.606l0.033-0.28c0.085-3.967,0.167-7.936,0.246-11.902l-0.093-0.14l-0.12-0.115
	l-0.066-0.045l-0.102-0.15l-0.182-0.627l-0.053-0.097l-0.072-0.075l-0.094-0.043l-0.201-0.045L81.34,35.68l-0.09,0.008l-0.084,0.023
	l-0.075,0.038l-0.064,0.058l-0.051,0.08l-0.039,0.09l-0.059,0.303l-0.039,0.096l-0.054,0.078l-0.058,0.068l-0.139,0.104
	l-0.141,0.063l-0.053,0.014l-0.022-0.009l-0.026-0.04l-0.091-0.174l-0.069-0.2l-0.021-0.214l-0.003-0.376l0.021-0.195l0.035-0.152
	l0.663-1.729l0.039-0.189l0.024-0.366l-0.006-0.182l-0.021-0.14l-0.033-0.081l-0.229-0.423l-0.017-0.105l0.012-0.105l0.076-0.273
	l0.029-0.229l-0.003-0.136l-0.013-0.11l-0.026-0.084l-0.036-0.073l-0.096-0.147l-0.055-0.147l-0.057-0.221l-0.117-0.763
	l-0.013-0.268l0.017-0.478l-0.02-0.151l-0.029-0.117l-0.039-0.075l-0.162-0.22l-0.058-0.098l-0.058-0.154v-0.121l0.029-0.107
	l0.15-0.257l0.438-1.413l0.05-0.236l0.039-0.372l0.022-0.099l0.045-0.088l0.053-0.081l0.129-0.127l0.138-0.106l0.147-0.088
	l0.138-0.102l0.063-0.127l0.051-0.189l0.043-0.377l0.003-0.345l-0.021-0.179l-0.179-0.789l-0.006-0.143l0.006-0.126l0.033-0.104
	l0.038-0.1l0.244-0.464l0.078-0.211l0.063-0.294l0.038-0.258l0.007-0.166l-0.007-0.166l-0.015-0.105L81.74,20.68l-0.123-0.28
	l-0.54-0.917l-0.175-0.389l-0.038-0.15l-0.097-0.641l-0.019-0.39l0.013-0.103l0.021-0.106l0.207-0.678l0.022-0.208l0.02-0.399
	l0.042-0.215l0.116-0.362l0.043-0.163l0.041-0.254l0.01-0.15l-0.003-0.121l-0.013-0.089l-0.029-0.08l-0.036-0.081l-0.236-0.265
	l-0.061-0.084l-0.058-0.101L80.795,14.3l-0.021-0.118l-0.006-0.109l0.021-0.207l0.021-0.106l0.071-0.223l0.045-0.104l0.21-0.351
	l0.059-0.117l0.045-0.147l0.048-0.235l0.006-0.141l-0.012-0.12l-0.066-0.261l-0.063-0.411l-0.051-0.213
	c-5.672,0.039-11.343,0.078-17.015,0.117l-0.207-0.018l-0.369,0.002l-1.604-0.2l-0.229,0.013l-0.219,0.074l-0.46,0.313l-0.741,0.273
	l-0.204,0.115l-0.555,0.443l-0.213,0.098L58.6,12.851l-1.777,1.093c-1.809,1.67-3.62,3.338-5.434,5.005l-0.695,0.958l-0.462,0.544
	l-0.001,0.001l0.001,0.001l0.162,0.261l0.083,0.323l0.027,0.314l-0.132,0.244l-0.816,0.545l-0.018,0.058l-0.013,0.101l-0.018,0.112
	L49.46,22.5l-0.048,0.033l-0.661,0.273l-0.068,0.116l-0.121,0.164l-1.645,1.448l-1.639,0.749l-2.2,1.607l-0.111,0.252l0.069,0.377
	l0.171,0.122l0.225,0.068l0.225,0.218l0.063,0.196l-0.033,0.137l-0.048,0.116l0.018,0.138l0.093,0.098l0.114,0.017l0.096-0.083
	l0.042-0.2l0.12-0.235l0.823-0.412l0.111,0.24l0.504-0.096l0.177,0.193l-0.09,0.086l-0.036,0.059l-0.054,0.225l0.096-0.104
	l0.105-0.075l0.114-0.045l0.126-0.014l-0.078,0.226l-0.147,0.235l-0.177,0.183l-0.333,0.168l-0.216,0.206l-0.132,0.205l0.078,0.094
	h0.787l0.234-0.075l0.348-0.329l0.201-0.074l0.21,0.057l0.093,0.146l-0.03,0.196l-0.146,0.21l-0.192,0.102l-0.417,0.075
	l-0.168,0.171l-0.091,0.263l-0.015,0.211l-0.051,0.218l-0.198,0.276l-0.55,0.467l-0.141,0.248l-0.345-0.248l0.063-0.111l0.117-0.355
	l-0.624,0.305L43.909,31.4l-0.144,0.278l0.075,0.123l0.186,0.089l0.198,0.183l0.072,0.085l0.162,0.13l0.063,0.078l0.039,0.129
	l0.003,0.133l0.015,0.138l0.168,0.335l0.114,0.478l0.084,0.219l-0.117,0.337l-0.019,0.398l0.049,0.419l0.087,0.402l0.108-0.242
	l0.121-0.166l0.138-0.05l0.162,0.102l-0.538,0.784l-0.063,0.384l0.348,0.259l-0.246,0.231l-0.492,0.606l-0.259,0.123l-0.853,0.18
	l-0.327-0.062L42.518,37.3l-0.226,0.038l-0.657,0.674l-0.244,0.189l-1.321,0.64l-0.483,0.354l-0.438,0.442l-0.57,1.088l-0.303-0.214
	l-0.18-0.045l-0.078,0.193l-0.066,0.073l-0.816,0.373l-1.303,0.278l-0.066,0.048l-0.078,0.155l-0.003,0.128l0.012,0.104
	l-0.018,0.086l-0.048,0.109l0.003,0.053L35.617,42.1L35.5,42.141l-0.129,0.016l-0.117-0.037l-0.099-0.084l-0.087-0.131l0.03-0.063
	l0.063-0.173l-4.851-0.237l-0.579,0.123l-1.588,0.588l-0.573-0.004l-0.522-0.248l-0.906-0.824l-0.063-0.028l-0.282-0.077
	l-0.003-0.186l-0.315-0.153l-4.526-0.856l-1.522,0.248l-1.939-0.283l-3.912,0.6l-0.819,0.406l-1.366,0.236L9.768,41.62l-0.864,0.153
	l0.057,0.3l0.066,1.554l-0.009,0.188L8.99,44.037l-0.051,0.146l-0.075,0.14L8.81,44.498l0.006,0.247l0.001,0.005l0.5,0.336
	l1.408,0.17l0.342,0.434l-0.063,0.384l-0.444,0.47l-0.105,0.389l0.054,0.151l0.238,0.219l0.054,0.101l0.093,0.758l0.069,0.189
	l0.27,0.517l0.069,0.22l0.023,0.148v0.399l-0.041,0.412l-0.124,0.306l-0.192,0.225l-0.256,0.178L9.725,51.2l-0.471,0.296L8.9,51.934
	l-0.267,0.627l-0.201,0.301l-0.27,0.125l-0.058,0.074l-0.21,0.459l-0.15,0.252l-0.069,0.07L7.51,53.934l-0.834,0.254l-0.261,0.367
	l-0.667,0.438l-0.627,0.261l-0.132,0.079l-0.087,0.108l-0.108,0.16l-0.129,0.146L4.29,55.938l-0.594,0.808l-0.708,0.396L2.783,57.38
	l-0.219,0.202l-0.861,0.327l-0.949,0.759l-0.357,0.171l-0.255,0.212L0,59.109v4.564c18.654,0.012,37.308,0.027,55.962,0.042
	l-0.007,0.228l0.304,0.233l0.394,0.188l0.271,0.188l0.075,0.313l0.025,0.424l0.074,0.376l0.209,0.161l0.699-0.116l0.159,0.054
	l0.276,0.239l0.345,0.126l0.181,0.316l0.123,0.072l0.158,0.065l-0.051,0.156l-0.291,0.366l0.262,0.143l0.223,0.08l0.152,0.152
	l0.055,0.369l-0.039,0.159l-0.172,0.144l-0.039,0.158l0.172,0.64v0.35l-0.078,0.87l0.035,0.174l0.16,0.158l0.639,1.385l0.172,0.262
	l0.216,0.189l0.563,0.141l0.156,0.158l0.126,0.188l0.177,0.162l0.308,0.065l0.618-0.04l0.246,0.152l0.164,0.148l0.133,0.002
	l0.123-0.061l0.145-0.039l0.098,0.055l0.064,0.131l0.1,0.273l0.107,0.163l0.193,0.361l0.074,0.334
	c2.502,1.534,5.006,3.065,7.512,4.593C72.404,79.636,73.238,80.145,74.074,80.652z M9.372,46.396l0.129,0.107l0.174,0.229
	l0.207,0.207l0.219,0.045l0.655-1.043l0.051-0.215l-0.111-0.16l-0.327-0.112l-0.198-0.097l-0.21,0.021L9.739,45.44l-0.234,0.016
	l0.023,0.25L9.36,46.282L9.372,46.396z M71.666,86.335l-0.161,0.097l-0.2,0.068l-0.283-0.018l-0.194-0.059l-0.15,0.039l-0.149,0.273
	l-0.047,0.252l-0.025,0.521l-0.09,0.246l-0.086,0.066l-0.127,0.051L70.02,87.95l-0.104,0.146l-0.02,0.113l0.02,0.45l1.507-0.792
	l0.627-0.628l0.042-0.864l-0.242-0.087L71.666,86.335z M99.777,79.133l-0.346-0.035l-0.255,0.043l0.048,0.172v0.104l-0.252-0.044
	l-0.188-0.096l-0.144,0.035l-0.108,0.342l-0.243-0.086l-0.24,0.125l-0.48,0.408l-0.482,0.215l-0.268,0.057l-0.113-0.091
	l-0.061-0.177l-0.41-0.627l-0.178-0.067l-0.136,0.2l-0.081,0.32l-0.006,0.293l-0.473-0.508l-0.174-0.105L95.07,79.72l-0.057,0.177
	l0.004,0.09l-0.154,0.051l-0.342,0.188h-0.158l-0.069-0.121l-0.062-0.188l-0.102-0.118l-0.197,0.086l0.131,0.322L93.871,80.4
	l-0.328,0.149l-0.699,0.564l-0.226,0.233l-0.032,0.187l0.023,0.204l-0.194,0.156L92.123,82l-0.273,0.061l-0.277-0.045l-0.254-0.117
	l-0.248-0.039l-0.262,0.201l-0.11-0.09l-0.126-0.045l-0.133-0.007l-0.142,0.015l0.124-0.209l0.23-0.226l0.258-0.177l0.318-0.108
	l0.1-0.091l0.171-0.213l0.032-0.064l0.082-0.201l0.066-0.076l0.059-0.014l0.143,0.025l0.057-0.012l0.36-0.303l0.12-0.041
	l0.025,0.108l0.104,0.207l0.113,0.121l0.055-0.15l-0.027-0.21l-0.039-0.17l0.017-0.161l0.146-0.188l0.117-0.053H93.2l0.129-0.072
	l-0.1-0.047l-0.09-0.069l-0.082-0.097l-0.074-0.131l0.869-0.823l0.496-0.298l0.189,0.313l0.168-0.063l0.201-0.133l0.168-0.174
	l0.064-0.189l-0.068-0.149l-0.161-0.086l-0.198-0.028l-0.174,0.024l-0.686,0.343l-0.191,0.159l-0.307,0.372l-0.191,0.152
	l-0.57,0.162l-0.275,0.129l-0.234,0.424l-0.747,0.335l-0.802,0.784l-0.282,0.105l-1.627,0.34L86.64,80.91h-2.16l0.067,0.181
	l-0.034,0.114l-0.117,0.054L84.23,81.25l0.071-0.342l-0.183-0.066l-0.282,0.081l-0.22,0.104l0.058,0.277l-0.142,0.26L83.29,81.75
	l-0.582,0.18l-0.135,0.006l-0.105-0.037l-0.252-0.147l-0.114-0.03l-0.261-0.035l-1.096-0.414h-0.272l-0.107,0.131l0.222,0.318
	l0.165-0.24l0.191,0.101l0.121,0.252l-0.047,0.231l-0.158,0.002l-0.226-0.096l-0.229-0.052l-0.175,0.146l-0.146-0.123l-0.11-0.117
	l0.119-0.311l-0.22-0.209l-0.319-0.007l-0.185,0.298l0.042,0.174l0.204,0.276l0.012,0.129l-0.101,0.072l-0.319-0.166l-0.178-0.019
	l0.032-0.078l0.045-0.049l-0.668-0.174l-0.709,0.192l-0.43,0.528l0.168,0.828l-0.183,0.023l-0.211-0.24l-0.229-0.333l-0.25-0.255
	l-0.156,0.122l-0.141,0.199l-0.021,0.177l0.412,0.168l0.045,0.195l-0.078,0.195l-0.145,0.09l-0.094-0.104L76.32,83.33l-0.133-0.171
	l-0.197,0.027l-0.084,0.158l0.033,0.443l-0.037,0.204l-0.293-0.22l-0.412-0.116l-0.362,0.077l-0.142,0.369l-0.594-0.142l-0.347,0.22
	l-0.543,1.061l-0.063,0.078l-0.131,0.078l-0.063,0.072l-0.021,0.045l-0.043,0.131l-0.023,0.049l-0.357,0.449l-0.064,0.127
	l0.045,0.387l0.365,0.424l-0.065,0.334l0.205,0.012l0.655-0.135l0.078-0.043l0.153-0.132l0.117-0.052l0.159,0.007l0.117,0.057
	l0.106-0.006l0.134-0.171l-0.16-0.223l-0.08-0.065l-0.105-0.051V86.5l0.352-0.256l0.198-0.068l0.276-0.027l0.255,0.039l0.339,0.105
	l0.246,0.146l-0.023,0.175l0.068,0.102l0.018,0.048l0.006,0.075l-0.244,0.019l-1.699,0.64l-0.229,0.147l0.424,0.086l1.791-0.549
	h2.291v-0.115L77.897,87l-0.951,0.114l-0.272-0.159l0.075-0.255l0.354-0.078l0.713-0.006l1.381-0.467l1.297-0.102l0.273-0.1
	l0.471-0.295l0.815-0.182l0.136-0.072l0.187-0.189l0.12-0.072l0.225-0.003l0.559,0.185l0.295,0.048l0.174-0.072l0.003-0.165
	l-0.032-0.191l0.071-0.146l0.159-0.036l0.152,0.048l0.153,0.069l0.147,0.042l0.151-0.018l0.548-0.143l0.164-0.146l0.129-0.035
	l0.819-0.033l0.269-0.078l0.313-0.197l0.153-0.031l0.301,0.192l0.145,0.036l0.271-0.055l0.188-0.146l0.055-0.22l-0.129-0.272
	l0.447,0.019l1.416-0.201l0.303,0.019l-0.119,0.142l-0.24,0.104l-0.627,0.152l-0.078,0.027l-0.043,0.052l0.027,0.09l0.074,0.065
	l0.058-0.03l0.055-0.063l0.069-0.035l0.126-0.01l1.302-0.547l0.799-0.158l0.498-0.31l0.146-0.129l-0.007-0.153l-0.086-0.162
	l-0.03-0.171l0.051-0.136l0.149-0.055l0.324,0.033l0.146,0.104l-0.012,0.181l-0.156,0.262l0.246-0.039l0.447-0.252l0.433-0.097
	l0.706-0.297l1.18-0.805l0.795-0.224l0.922-0.471l0.855-0.21l1.555-0.915l0.217-0.086l0.183-0.104l0.091-0.16L99.777,79.133z
	 M97.923,76.111l0.171-0.01l0.186-0.08l0.332-0.271l0.226-0.129l0.041-0.01l0.043-0.025l0.038-0.066l-0.999,0.127l-0.219,0.103
	l-0.064,0.203l0.082,0.116L97.923,76.111z M87.604,84.57l-0.666,0.176c-0.104,0.068-0.207,0.138-0.311,0.205l-0.534,0.162
	l-0.177,0.023l-0.171,0.071l-0.373,0.347l-0.194,0.141L84.35,86.01l-1.233,0.239l-0.421,0.187l-0.424,0.033l-0.345-0.084
	l0.078,0.204l0.45-0.022l1.229-0.248l1.348-0.467l0.42-0.218l0.207-0.041l0.83-0.508l1.193-0.381l0.184-0.021l0.152-0.136
	l0.459-0.217v-0.1l-0.213,0.033L87.604,84.57z M82.332,86.218l-0.003-0.048l0.012-0.023l0.058,0.002v-0.102l-0.239,0.09
	l-0.796,0.012l-0.143,0.031l-0.084,0.038l-0.207,0.159l-0.3,0.111l-0.093,0.068l-0.18,0.08l-1.844,0.315l0.284,0.192l1.822-0.367
	l0.741-0.401l0.957-0.104L82.332,86.218z"/>
</svg>
